<svg version="1.1" xmlns="http://www.w3.org/2000/svg" xmlns:xlink="http://www.w3.org/1999/xlink" width="64px" height="64px" viewBox="0,0,256,256"><g fill="#0080ff" fill-rule="nonzero" stroke="none" stroke-width="1" stroke-linecap="butt" stroke-linejoin="miter" stroke-miterlimit="10" stroke-dasharray="" stroke-dashoffset="0" font-family="none" font-weight="none" font-size="none" text-anchor="none" style="mix-blend-mode: normal"><g transform="scale(4,4)"><path d="M23,10c-3.309,0 -6,2.691 -6,6v15h-3c-3.309,0 -6,2.691 -6,6v14c0,1.104 0.896,2 2,2c1.104,0 2,-0.896 2,-2v-14c0,-1.103 0.897,-2 2,-2h16v16c0,1.104 0.896,2 2,2c1.104,0 2,-0.896 2,-2v-21c0,-1.103 0.897,-2 2,-2h14c1.103,0 2,0.897 2,2v21c0,1.104 0.896,2 2,2c1.104,0 2,-0.896 2,-2v-21c0,-3.309 -2.691,-6 -6,-6h-7v-8c0,-3.309 -2.691,-6 -6,-6zM23,14h14c1.103,0 2,0.897 2,2v8h-3c-3.309,0 -6,2.691 -6,6v1h-9v-15c0,-1.103 0.897,-2 2,-2zM25,17c-0.552,0 -1,0.448 -1,1v2c0,0.552 0.448,1 1,1h2c0.552,0 1,-0.448 1,-1v-2c0,-0.552 -0.448,-1 -1,-1zM33,17c-0.552,0 -1,0.448 -1,1v2c0,0.552 0.448,1 1,1h2c0.552,0 1,-0.448 1,-1v-2c0,-0.552 -0.448,-1 -1,-1zM25,24c-0.552,0 -1,0.448 -1,1v2c0,0.552 0.448,1 1,1h2c0.552,0 1,-0.448 1,-1v-2c0,-0.552 -0.448,-1 -1,-1zM38,31c-0.552,0 -1,0.448 -1,1v2c0,0.552 0.448,1 1,1h2c0.552,0 1,-0.448 1,-1v-2c0,-0.552 -0.448,-1 -1,-1zM46,31c-0.552,0 -1,0.448 -1,1v2c0,0.552 0.448,1 1,1h2c0.552,0 1,-0.448 1,-1v-2c0,-0.552 -0.448,-1 -1,-1zM16,38c-0.552,0 -1,0.448 -1,1v2c0,0.552 0.448,1 1,1h2c0.552,0 1,-0.448 1,-1v-2c0,-0.552 -0.448,-1 -1,-1zM24,38c-0.552,0 -1,0.448 -1,1v2c0,0.552 0.448,1 1,1h2c0.552,0 1,-0.448 1,-1v-2c0,-0.552 -0.448,-1 -1,-1zM38,38c-0.552,0 -1,0.448 -1,1v2c0,0.552 0.448,1 1,1h2c0.552,0 1,-0.448 1,-1v-2c0,-0.552 -0.448,-1 -1,-1zM46,38c-0.552,0 -1,0.448 -1,1v2c0,0.552 0.448,1 1,1h2c0.552,0 1,-0.448 1,-1v-2c0,-0.552 -0.448,-1 -1,-1zM16,45c-0.552,0 -1,0.448 -1,1v2c0,0.552 0.448,1 1,1h2c0.552,0 1,-0.448 1,-1v-2c0,-0.552 -0.448,-1 -1,-1zM24,45c-0.552,0 -1,0.448 -1,1v2c0,0.552 0.448,1 1,1h2c0.552,0 1,-0.448 1,-1v-2c0,-0.552 -0.448,-1 -1,-1zM38,45c-0.552,0 -1,0.448 -1,1v2c0,0.552 0.448,1 1,1h2c0.552,0 1,-0.448 1,-1v-2c0,-0.552 -0.448,-1 -1,-1zM46,45c-0.552,0 -1,0.448 -1,1v2c0,0.552 0.448,1 1,1h2c0.552,0 1,-0.448 1,-1v-2c0,-0.552 -0.448,-1 -1,-1z"></path></g></g></svg>